<mxfile modified="2022-05-29T15:09:10.056Z" host="app.diagrams.net" agent="5.0 (Macintosh; Intel Mac OS X 10_15_7) AppleWebKit/605.1.15 (KHTML, like Gecko) Version/15.4 Safari/605.1.15" etag="124xMf0ZNGB6KtTvxNkE" version="18.1.3" type="github">
  <diagram id="Ht1M8jgEwFfnCIfOTk4-" name="Page-1">
    <mxGraphModel dx="946" dy="645" grid="1" gridSize="10" guides="1" tooltips="1" connect="1" arrows="1" fold="1" page="1" pageScale="1" pageWidth="1169" pageHeight="827" math="0" shadow="0">
      <root>
        <mxCell id="0" />
        <mxCell id="1" parent="0" />
        <mxCell id="s4OY_YWM5SDIgM9x7Mll-5" value="index.html" style="edgeStyle=orthogonalEdgeStyle;rounded=0;orthogonalLoop=1;jettySize=auto;html=1;" edge="1" parent="1" source="s4OY_YWM5SDIgM9x7Mll-1" target="s4OY_YWM5SDIgM9x7Mll-4">
          <mxGeometry relative="1" as="geometry" />
        </mxCell>
        <mxCell id="s4OY_YWM5SDIgM9x7Mll-7" style="edgeStyle=orthogonalEdgeStyle;rounded=0;orthogonalLoop=1;jettySize=auto;html=1;" edge="1" parent="1" source="s4OY_YWM5SDIgM9x7Mll-1" target="s4OY_YWM5SDIgM9x7Mll-6">
          <mxGeometry relative="1" as="geometry" />
        </mxCell>
        <mxCell id="s4OY_YWM5SDIgM9x7Mll-8" value="&lt;ol style=&quot;text-align: start; box-sizing: border-box; min-width: 0px; min-height: 0px; list-style-type: none; padding-left: 10px; padding-bottom: 5px; border-bottom: solid 1px var(--color-details-hairline); font-family: &amp;quot;.SFNSDisplay-Regular&amp;quot;, &amp;quot;Helvetica Neue&amp;quot;, &amp;quot;Lucida Grande&amp;quot;, sans-serif; font-size: 12px; font-variant-ligatures: normal; orphans: 2; widows: 2; text-decoration-thickness: initial;&quot; role=&quot;group&quot; class=&quot;children expanded&quot;&gt;&lt;li style=&quot;box-sizing: border-box; min-width: 0px; min-height: 12px; outline-width: 0px; text-overflow: ellipsis; position: relative; display: block; align-items: center; padding-left: 5px; line-height: 20px; margin-top: 1px; margin-left: 10px;&quot; aria-selected=&quot;true&quot; class=&quot;selected&quot; tabindex=&quot;0&quot; role=&quot;treeitem&quot;&gt;&lt;div style=&quot;box-sizing: border-box; min-width: 0px; min-height: 0px; font-family: var(--source-code-font-family); display: inline; margin-right: 1em; word-break: break-all; margin-top: 1px; font-size: var(--source-code-font-size) !important;&quot; class=&quot;header-value source-code&quot;&gt;HTTP get main9a680e73.css&lt;/div&gt;&lt;/li&gt;&lt;/ol&gt;" style="edgeLabel;html=1;align=center;verticalAlign=middle;resizable=0;points=[];fontColor=default;labelBackgroundColor=none;" vertex="1" connectable="0" parent="s4OY_YWM5SDIgM9x7Mll-7">
          <mxGeometry x="0.2632" y="1" relative="1" as="geometry">
            <mxPoint x="-23" y="-7" as="offset" />
          </mxGeometry>
        </mxCell>
        <mxCell id="s4OY_YWM5SDIgM9x7Mll-1" value="" style="sketch=0;outlineConnect=0;fontColor=#232F3E;gradientColor=none;fillColor=#232F3D;strokeColor=none;dashed=0;verticalLabelPosition=bottom;verticalAlign=top;align=center;html=1;fontSize=12;fontStyle=0;aspect=fixed;pointerEvents=1;shape=mxgraph.aws4.mobile_client;" vertex="1" parent="1">
          <mxGeometry x="200" y="280" width="41" height="78" as="geometry" />
        </mxCell>
        <mxCell id="s4OY_YWM5SDIgM9x7Mll-4" value="" style="sketch=0;points=[[0,0,0],[0.25,0,0],[0.5,0,0],[0.75,0,0],[1,0,0],[0,1,0],[0.25,1,0],[0.5,1,0],[0.75,1,0],[1,1,0],[0,0.25,0],[0,0.5,0],[0,0.75,0],[1,0.25,0],[1,0.5,0],[1,0.75,0]];outlineConnect=0;fontColor=#232F3E;gradientColor=none;gradientDirection=north;fillColor=none;strokeColor=#080808;dashed=0;verticalLabelPosition=bottom;verticalAlign=top;align=center;html=1;fontSize=12;fontStyle=0;aspect=fixed;shape=mxgraph.aws4.resourceIcon;resIcon=mxgraph.aws4.database;" vertex="1" parent="1">
          <mxGeometry x="196.5" y="440" width="48" height="48" as="geometry" />
        </mxCell>
        <mxCell id="s4OY_YWM5SDIgM9x7Mll-6" value="Cloud&#xa;CDN" style="sketch=0;html=1;verticalAlign=top;labelPosition=center;verticalLabelPosition=bottom;align=center;spacingTop=-6;fontSize=11;fontStyle=1;fontColor=#999999;shape=image;aspect=fixed;imageAspect=0;image=data:image/svg+xml,PHN2ZyB4bWxucz0iaHR0cDovL3d3dy53My5vcmcvMjAwMC9zdmciIHhtbG5zOnY9Imh0dHBzOi8vdmVjdGEuaW8vbmFubyIgd2lkdGg9IjIwIiBoZWlnaHQ9IjIwIiB2aWV3Qm94PSIwIDAgMjAgMjAiPiYjeGE7CTxzdHlsZSB0eXBlPSJ0ZXh0L2NzcyI+JiN4YTsJLnN0MHtmaWxsOiM0Mjg1ZjQ7fSYjeGE7CS5zdDF7ZmlsbDojNjY5ZGY2O30mI3hhOwkuc3Qye2ZpbGw6I2FlY2JmYTt9JiN4YTsJPC9zdHlsZT4mI3hhOwk8cGF0aCBjbGFzcz0ic3QxIiBkPSJNMTMuMTMgNS42M1YzLjIxTDEwIDB2Mi40MXptMy43NSA3LjVMMjAgMTBoLTIuNWwtMy4xMiAzLjEzem0tMTMuNzUgMEwwIDEwaDIuNWwzLjEzIDMuMTN6bTEwIDEuMjV2Mi40MUwxMCAyMHYtMi40MXoiIGZpbGwtcnVsZT0iZXZlbm9kZCIvPiYjeGE7CTxwYXRoIGNsYXNzPSJzdDIiIGQ9Ik02Ljg4IDUuNjNMMTAgMi40MVYwTDYuODggMy4yMXpNMTcuNSAxMEgyMGwtMy4xMi0zLjEyaC0yLjV6bS0xNSAwSDBsMy4xMy0zLjEyaDIuNXptNC4zOCA0LjM4TDEwIDE3LjU5VjIwbC0zLjEyLTMuMjF6bTAtNy41aDYuMjV2Ni4yNUg2Ljg4eiIgZmlsbC1ydWxlPSJldmVub2RkIi8+JiN4YTsJPHBhdGggY2xhc3M9InN0MSIgZD0iTTYuODggMTMuMTNsNi4yNS02LjI1djYuMjV6IiBmaWxsLXJ1bGU9ImV2ZW5vZGQiLz4mI3hhOwk8cGF0aCBjbGFzcz0ic3QwIiBkPSJNMTAgMTBsMy4xMy0zLjEydjYuMjV6IiBmaWxsLXJ1bGU9ImV2ZW5vZGQiLz4mI3hhOzwvc3ZnPg==;strokeColor=#080808;fillColor=none;gradientColor=none;gradientDirection=east;imageBackground=none;" vertex="1" parent="1">
          <mxGeometry x="490" y="298" width="42" height="42" as="geometry" />
        </mxCell>
        <mxCell id="s4OY_YWM5SDIgM9x7Mll-10" value="" style="endArrow=classic;html=1;rounded=0;fontColor=default;exitX=0;exitY=1;exitDx=0;exitDy=0;" edge="1" parent="1" source="s4OY_YWM5SDIgM9x7Mll-6">
          <mxGeometry width="50" height="50" relative="1" as="geometry">
            <mxPoint x="460" y="420" as="sourcePoint" />
            <mxPoint x="250" y="340" as="targetPoint" />
            <Array as="points">
              <mxPoint x="320" y="340" />
            </Array>
          </mxGeometry>
        </mxCell>
        <mxCell id="s4OY_YWM5SDIgM9x7Mll-11" value="404 not found" style="edgeLabel;html=1;align=center;verticalAlign=middle;resizable=0;points=[];fontColor=default;" vertex="1" connectable="0" parent="s4OY_YWM5SDIgM9x7Mll-10">
          <mxGeometry x="0.1167" y="1" relative="1" as="geometry">
            <mxPoint x="24" y="9" as="offset" />
          </mxGeometry>
        </mxCell>
        <mxCell id="s4OY_YWM5SDIgM9x7Mll-12" value="" style="aspect=fixed;perimeter=ellipsePerimeter;html=1;align=center;shadow=0;dashed=0;spacingTop=3;image;image=img/lib/active_directory/web_server.svg;labelBackgroundColor=none;fontColor=default;strokeColor=#080808;fillColor=none;gradientColor=none;gradientDirection=east;" vertex="1" parent="1">
          <mxGeometry x="800" y="298" width="40" height="50" as="geometry" />
        </mxCell>
        <mxCell id="s4OY_YWM5SDIgM9x7Mll-14" style="edgeStyle=orthogonalEdgeStyle;rounded=0;orthogonalLoop=1;jettySize=auto;html=1;" edge="1" parent="1">
          <mxGeometry relative="1" as="geometry">
            <mxPoint x="540" y="317" as="sourcePoint" />
            <mxPoint x="789" y="317" as="targetPoint" />
          </mxGeometry>
        </mxCell>
        <mxCell id="s4OY_YWM5SDIgM9x7Mll-15" value="&lt;ol style=&quot;text-align: start; box-sizing: border-box; min-width: 0px; min-height: 0px; list-style-type: none; padding-left: 10px; padding-bottom: 5px; border-bottom: solid 1px var(--color-details-hairline); font-family: &amp;quot;.SFNSDisplay-Regular&amp;quot;, &amp;quot;Helvetica Neue&amp;quot;, &amp;quot;Lucida Grande&amp;quot;, sans-serif; font-size: 12px; font-variant-ligatures: normal; orphans: 2; widows: 2; text-decoration-thickness: initial;&quot; role=&quot;group&quot; class=&quot;children expanded&quot;&gt;&lt;li style=&quot;box-sizing: border-box; min-width: 0px; min-height: 12px; outline-width: 0px; text-overflow: ellipsis; position: relative; display: block; align-items: center; padding-left: 5px; line-height: 20px; margin-top: 1px; margin-left: 10px;&quot; aria-selected=&quot;true&quot; class=&quot;selected&quot; tabindex=&quot;0&quot; role=&quot;treeitem&quot;&gt;&lt;div style=&quot;box-sizing: border-box; min-width: 0px; min-height: 0px; font-family: var(--source-code-font-family); display: inline; margin-right: 1em; word-break: break-all; margin-top: 1px; font-size: var(--source-code-font-size) !important;&quot; class=&quot;header-value source-code&quot;&gt;HTTP get main9a680e73.css&lt;/div&gt;&lt;/li&gt;&lt;/ol&gt;" style="edgeLabel;html=1;align=center;verticalAlign=middle;resizable=0;points=[];fontColor=default;labelBackgroundColor=none;" vertex="1" connectable="0" parent="s4OY_YWM5SDIgM9x7Mll-14">
          <mxGeometry x="0.2632" y="1" relative="1" as="geometry">
            <mxPoint x="-19" y="-8" as="offset" />
          </mxGeometry>
        </mxCell>
        <mxCell id="s4OY_YWM5SDIgM9x7Mll-16" value="" style="endArrow=classic;html=1;rounded=0;fontColor=default;exitX=0;exitY=1;exitDx=0;exitDy=0;" edge="1" parent="1">
          <mxGeometry width="50" height="50" relative="1" as="geometry">
            <mxPoint x="785" y="340" as="sourcePoint" />
            <mxPoint x="545" y="340" as="targetPoint" />
            <Array as="points">
              <mxPoint x="615" y="340" />
            </Array>
          </mxGeometry>
        </mxCell>
        <mxCell id="s4OY_YWM5SDIgM9x7Mll-17" value="404 not found" style="edgeLabel;html=1;align=center;verticalAlign=middle;resizable=0;points=[];fontColor=default;" vertex="1" connectable="0" parent="s4OY_YWM5SDIgM9x7Mll-16">
          <mxGeometry x="0.1167" y="1" relative="1" as="geometry">
            <mxPoint x="24" y="9" as="offset" />
          </mxGeometry>
        </mxCell>
      </root>
    </mxGraphModel>
  </diagram>
</mxfile>
